# xmcd
#
# Track frame offsets: 
#        150
#        25350
#        50267
#        78107
#        97767
#        123407
#        145585
#        165057
#
# Disc length: 2499 seconds
#
# Revision: 1
# Processed by: cddbd v1.5.2PL0 Copyright (c) Steve Scherf et al.
# Submitted via: ExactAudioCopy v0.99pb5
#
DISCID=4d09c108
DTITLE=Larry Harlow - Asi Soy Yo
DYEAR=1997
DGENRE=Salsa
TTITLE0=Banderita (A Little Flag)
TTITLE1=Quincallero (The Peddler)
TTITLE2=Consejos de Mi Abuela (Advice from My Grandmother)
TTITLE3=Preparo (The Untouchables)
TTITLE4=Asi Soy Yo (That's How I Am)
TTITLE5=Paquetero (The Jiver)
TTITLE6=Solo Sin Amigos (Alone and Withour Friends)
TTITLE7=Tipo Liberado (A Liberated Guy)
EXTD=YEAR: 1997
EXTT0=
EXTT1=
EXTT2=
EXTT3=
EXTT4=
EXTT5=
EXTT6=
EXTT7=
PLAYORDER=
